<svg width="160" height="40" viewBox="0 0 160 40" fill="none" xmlns="http://www.w3.org/2000/svg">
<g clip-path="url(#clip0_5373_19)">
<path d="M34.8844 6.65649C33.0966 4.62767 30.9126 2.9898 28.4679 1.84468C26.0233 0.699557 23.3704 0.0716998 20.6739 0H0.363281V27.5035C0.363281 30.7352 1.64134 33.8345 3.91633 36.1196C6.19132 38.4048 9.27689 39.6886 12.4942 39.6886H20.1194C25.359 39.6886 30.384 37.5978 34.089 33.8763C37.794 30.1547 39.8755 25.1073 39.8755 19.8443C39.8879 14.9805 38.1104 10.2837 34.8844 6.65649ZM27.1414 27.4965C26.3514 28.1644 25.4657 28.7089 24.5142 29.1119C23.3414 29.6119 22.0861 29.8882 20.8126 29.9266H12.068C10.9635 29.9266 10.068 29.0311 10.068 27.9266V10.0378C10.068 9.48555 10.5157 9.03784 11.068 9.03784H20.8126C23.5098 9.1282 26.0663 10.2683 27.942 12.2173C29.8176 14.1663 30.8654 16.7715 30.8639 19.4822C30.8677 21.0107 30.5361 22.5212 29.8927 23.9064C29.2494 25.2916 28.31 26.5174 27.1414 27.4965Z" fill="white"/>
<path d="M63.7057 0.15625C69.193 0.15625 73.9035 2.11526 77.8372 6.03327C81.8039 9.91808 83.7873 14.6164 83.7873 20.1282C83.7873 25.64 81.8039 30.3383 77.8372 34.2231C73.9035 38.0747 69.193 40.0005 63.7057 40.0005C58.2184 40.0005 53.508 38.0747 49.5743 34.2231C45.6406 30.3383 43.6738 25.64 43.6738 20.1282C43.6738 14.6164 45.6406 9.91808 49.5743 6.03327C53.508 2.11526 58.2184 0.15625 63.7057 0.15625ZM63.7057 8.07529C60.4332 8.07529 57.6565 9.27061 55.3756 11.6613C53.1278 14.0188 52.0039 16.8411 52.0039 20.1282C52.0039 23.4153 53.1278 26.2376 55.3756 28.5951C57.6565 30.9193 60.4332 32.0815 63.7057 32.0815C66.9783 32.0815 69.755 30.9193 72.0359 28.5951C74.3167 26.2376 75.4571 23.4153 75.4571 20.1282C75.4571 16.8411 74.3167 14.0188 72.0359 11.6613C69.755 9.27061 66.9783 8.07529 63.7057 8.07529Z" fill="white"/>
<path d="M95.3418 20.0286C95.3418 16.7414 96.4822 13.9357 98.7631 11.6115C101.044 9.25401 103.821 8.07529 107.094 8.07529H110.912C113.093 8.07529 114.944 7.31161 116.465 5.78425C118.019 4.22368 118.796 2.34768 118.796 0.15625H107.094C101.606 0.15625 96.8789 2.09866 92.9122 5.98347C88.9785 9.83507 87.0117 14.5168 87.0117 20.0286V40.0005C89.2925 40.0005 91.2428 39.187 92.8626 37.56C94.5154 35.8999 95.3418 33.9243 95.3418 31.6332V20.0286Z" fill="white"/>
<path d="M159.521 20.1282V40.0005H139.39C133.903 40.0005 129.176 38.0747 125.209 34.2231C121.275 30.3383 119.309 25.64 119.309 20.1282C119.309 14.6164 121.275 9.91808 125.209 6.03327C129.176 2.11526 133.903 0.15625 139.39 0.15625C144.877 0.15625 149.604 2.11526 153.571 6.03327C157.538 9.91808 159.521 14.6164 159.521 20.1282ZM151.092 32.0815V20.1282C151.092 16.8411 149.951 14.0188 147.671 11.6613C145.423 9.27061 142.663 8.07529 139.39 8.07529C136.118 8.07529 133.341 9.27061 131.06 11.6613C128.812 14.0188 127.688 16.8411 127.688 20.1282C127.688 23.4153 128.812 26.2376 131.06 28.5951C133.341 30.9193 136.118 32.0815 139.39 32.0815H151.092Z" fill="white"/>
</g>
<defs>
<clipPath id="clip0_5373_19">
<rect width="160" height="40" fill="white"/>
</clipPath>
</defs>
</svg>
