<svg width="554" height="550" viewBox="0 0 554 550" fill="none" xmlns="http://www.w3.org/2000/svg">
<g clip-path="url(#clip0_5373_14)">
<path d="M218.421 41.9295C207.109 29.1499 193.29 18.8329 177.822 11.6197C162.355 4.40654 145.569 0.45164 128.508 0H0V173.246C0 193.602 8.08649 213.125 22.4807 227.519C36.8749 241.913 56.3978 250 76.7543 250H125C158.152 250 189.946 236.83 213.388 213.388C236.83 189.946 250 158.152 250 125C250.078 94.363 238.831 64.7775 218.421 41.9295ZM169.429 173.202C164.431 177.409 158.827 180.839 152.807 183.377C145.386 186.527 137.444 188.267 129.386 188.509H63.4034C62.2988 188.509 61.4034 187.613 61.4034 186.509V57.9297C61.4034 57.3774 61.8511 56.9297 62.4034 56.9297H129.386C146.451 57.4989 162.627 64.6805 174.495 76.9573C186.362 89.2341 192.992 105.644 192.982 122.719C193.006 132.347 190.908 141.862 186.837 150.588C182.767 159.313 176.823 167.034 169.429 173.202Z" fill="white"/>
<path d="M77.3438 424.687C77.3438 404.062 84.5311 386.458 98.9061 371.875C113.281 357.083 130.781 349.687 151.406 349.687H175.469C189.219 349.687 200.885 344.896 210.469 335.312C220.26 325.521 225.156 313.75 225.156 300H151.406C116.823 300 87.0312 312.187 62.0312 336.562C37.2396 360.729 24.8438 390.104 24.8438 424.687V550C39.2186 550 51.5104 544.896 61.7187 534.687C72.1354 524.271 77.3438 511.875 77.3438 497.5V424.687Z" fill="white"/>
<path d="M426.875 0C461.458 0 491.146 12.2917 515.937 36.875C540.937 61.25 553.437 90.7292 553.437 125.312C553.437 159.896 540.937 189.375 515.937 213.75C491.146 237.917 461.458 250 426.875 250C392.292 250 362.604 237.917 337.813 213.75C313.021 189.375 300.625 159.896 300.625 125.312C300.625 90.7292 313.021 61.25 337.813 36.875C362.604 12.2917 392.292 0 426.875 0ZM426.875 49.6875C406.25 49.6875 388.75 57.1875 374.375 72.1875C360.208 86.9792 353.125 104.687 353.125 125.312C353.125 145.937 360.208 163.646 374.375 178.437C388.75 193.021 406.25 200.313 426.875 200.313C447.5 200.313 465 193.021 479.375 178.437C493.75 163.646 500.937 145.937 500.937 125.312C500.937 104.687 493.75 86.9792 479.375 72.1875C465 57.1875 447.5 49.6875 426.875 49.6875Z" fill="white"/>
<path d="M553.437 425.312V550H426.562C391.979 550 362.187 537.917 337.187 513.75C312.396 489.375 300 459.896 300 425.312C300 390.729 312.396 361.25 337.187 336.875C362.187 312.292 391.979 300 426.562 300C461.146 300 490.937 312.292 515.937 336.875C540.937 361.25 553.437 390.729 553.437 425.312ZM500.312 500.312V425.312C500.312 404.687 493.125 386.979 478.75 372.187C464.583 357.187 447.187 349.687 426.562 349.687C405.937 349.687 388.437 357.187 374.062 372.187C359.896 386.979 352.813 404.687 352.813 425.312C352.813 445.937 359.896 463.646 374.062 478.437C388.437 493.021 405.937 500.312 426.562 500.312H500.312Z" fill="white"/>
</g>
<defs>
<clipPath id="clip0_5373_14">
<rect width="554" height="550" fill="white"/>
</clipPath>
</defs>
</svg>
