<?xml version="1.0" encoding="UTF-8"?>
<svg xmlns="http://www.w3.org/2000/svg" xmlns:xlink="http://www.w3.org/1999/xlink" width="16px" height="16px" viewBox="0 0 16 16" version="1.1">
<g id="surface1">
<path style=" stroke:none;fill-rule:nonzero;fill:rgb(0%,0%,0%);fill-opacity:1;" d="M 8 2 L 8.324219 1.417969 C 8.125 1.304688 7.875 1.304688 7.675781 1.417969 Z M 8.933594 2.523438 L 8.605469 3.105469 C 8.703125 3.160156 8.8125 3.1875 8.921875 3.1875 Z M 10 2.535156 L 10.574219 2.195312 C 10.453125 1.996094 10.242188 1.871094 10.007812 1.871094 Z M 10.546875 3.453125 L 9.972656 3.792969 C 10.03125 3.890625 10.109375 3.96875 10.207031 4.027344 Z M 11.464844 4 L 12.128906 3.992188 C 12.128906 3.757812 12.003906 3.546875 11.804688 3.425781 Z M 11.476562 5.066406 L 10.8125 5.078125 C 10.8125 5.1875 10.839844 5.296875 10.894531 5.394531 Z M 12 6 L 12.582031 6.324219 C 12.695312 6.125 12.695312 5.875 12.582031 5.675781 Z M 11.476562 6.933594 L 10.894531 6.605469 C 10.839844 6.703125 10.8125 6.8125 10.8125 6.921875 Z M 11.464844 8 L 11.804688 8.574219 C 12.003906 8.453125 12.128906 8.242188 12.128906 8.007812 Z M 10.546875 8.546875 L 10.207031 7.972656 C 10.109375 8.03125 10.03125 8.109375 9.972656 8.207031 Z M 10 9.464844 L 10.007812 10.128906 C 10.242188 10.128906 10.453125 10.003906 10.574219 9.804688 Z M 8.933594 9.476562 L 8.921875 8.8125 C 8.8125 8.8125 8.703125 8.839844 8.605469 8.894531 Z M 8 10 L 7.675781 10.582031 C 7.875 10.695312 8.125 10.695312 8.324219 10.582031 Z M 7.066406 9.476562 L 7.394531 8.894531 C 7.296875 8.839844 7.1875 8.8125 7.078125 8.8125 Z M 6 9.464844 L 5.425781 9.804688 C 5.546875 10.003906 5.757812 10.128906 5.992188 10.128906 Z M 5.453125 8.546875 L 6.027344 8.207031 C 5.96875 8.109375 5.890625 8.03125 5.792969 7.972656 Z M 4.535156 8 L 3.871094 8.007812 C 3.871094 8.242188 3.996094 8.453125 4.195312 8.574219 Z M 4.523438 6.933594 L 5.1875 6.921875 C 5.1875 6.8125 5.160156 6.703125 5.105469 6.605469 Z M 4 6 L 3.417969 5.675781 C 3.304688 5.875 3.304688 6.125 3.417969 6.324219 Z M 4.523438 5.066406 L 5.105469 5.394531 C 5.160156 5.296875 5.1875 5.1875 5.1875 5.078125 Z M 4.535156 4 L 4.195312 3.425781 C 3.996094 3.546875 3.871094 3.757812 3.871094 3.992188 Z M 5.453125 3.453125 L 5.792969 4.027344 C 5.890625 3.96875 5.96875 3.890625 6.027344 3.792969 Z M 6 2.535156 L 5.992188 1.871094 C 5.757812 1.871094 5.546875 1.996094 5.425781 2.195312 Z M 7.066406 2.523438 L 7.078125 3.1875 C 7.1875 3.1875 7.296875 3.160156 7.394531 3.105469 Z M 2.667969 12.667969 L 2.070312 12.367188 C 1.96875 12.574219 1.976562 12.820312 2.097656 13.015625 C 2.222656 13.214844 2.4375 13.332031 2.667969 13.332031 Z M 4.332031 12.667969 L 4.867188 12.265625 C 4.742188 12.097656 4.542969 12 4.332031 12 Z M 5.332031 14 L 4.800781 14.398438 C 4.9375 14.585938 5.164062 14.683594 5.394531 14.664062 C 5.625 14.644531 5.828125 14.503906 5.929688 14.296875 Z M 13.332031 12.667969 L 13.332031 13.332031 C 13.5625 13.332031 13.777344 13.214844 13.902344 13.015625 C 14.023438 12.820312 14.03125 12.574219 13.929688 12.367188 Z M 11.667969 12.667969 L 11.667969 12 C 11.457031 12 11.257812 12.097656 11.132812 12.265625 Z M 10.667969 14 L 10.070312 14.296875 C 10.171875 14.503906 10.375 14.644531 10.605469 14.664062 C 10.835938 14.683594 11.0625 14.585938 11.199219 14.398438 Z M 12.929688 10.367188 C 12.765625 10.039062 12.363281 9.90625 12.035156 10.070312 C 11.707031 10.234375 11.574219 10.636719 11.738281 10.964844 Z M 10.261719 11.703125 C 10.097656 11.371094 9.699219 11.238281 9.367188 11.402344 C 9.039062 11.570312 8.90625 11.96875 9.070312 12.296875 Z M 6.929688 12.296875 C 7.09375 11.96875 6.960938 11.570312 6.632812 11.402344 C 6.300781 11.238281 5.902344 11.371094 5.738281 11.703125 Z M 4.261719 10.964844 C 4.425781 10.636719 4.292969 10.234375 3.964844 10.070312 C 3.636719 9.90625 3.234375 10.039062 3.070312 10.367188 Z M 7.675781 2.582031 L 8.605469 3.105469 L 9.257812 1.941406 L 8.324219 1.417969 Z M 8.921875 3.1875 L 9.992188 3.203125 L 10.007812 1.871094 L 8.941406 1.855469 Z M 9.425781 2.875 L 9.972656 3.792969 L 11.117188 3.113281 L 10.574219 2.195312 Z M 10.207031 4.027344 L 11.125 4.574219 L 11.804688 3.425781 L 10.886719 2.882812 Z M 10.796875 4.007812 L 10.8125 5.078125 L 12.144531 5.058594 L 12.128906 3.992188 Z M 10.894531 5.394531 L 11.417969 6.324219 L 12.582031 5.675781 L 12.058594 4.742188 Z M 11.417969 5.675781 L 10.894531 6.605469 L 12.058594 7.257812 L 12.582031 6.324219 Z M 10.8125 6.921875 L 10.796875 7.992188 L 12.128906 8.007812 L 12.144531 6.941406 Z M 9.972656 8.207031 L 9.425781 9.125 L 10.574219 9.804688 L 11.117188 8.886719 Z M 9.992188 8.796875 L 8.921875 8.8125 L 8.941406 10.144531 L 10.007812 10.128906 Z M 7.078125 8.8125 L 6.007812 8.796875 L 5.992188 10.128906 L 7.058594 10.144531 Z M 6.574219 9.125 L 6.027344 8.207031 L 4.882812 8.886719 L 5.425781 9.804688 Z M 5.203125 7.992188 L 5.1875 6.921875 L 3.855469 6.941406 L 3.871094 8.007812 Z M 5.105469 6.605469 L 4.582031 5.675781 L 3.417969 6.324219 L 3.941406 7.257812 Z M 4.582031 6.324219 L 5.105469 5.394531 L 3.941406 4.742188 L 3.417969 5.675781 Z M 5.1875 5.078125 L 5.203125 4.007812 L 3.871094 3.992188 L 3.855469 5.058594 Z M 4.875 4.574219 L 5.792969 4.027344 L 5.113281 2.882812 L 4.195312 3.425781 Z M 6.027344 3.792969 L 6.574219 2.875 L 5.425781 2.195312 L 4.882812 3.113281 Z M 6.007812 3.203125 L 7.078125 3.1875 L 7.058594 1.855469 L 5.992188 1.871094 Z M 7.394531 3.105469 L 8.324219 2.582031 L 7.675781 1.417969 L 6.742188 1.941406 Z M 11.125 7.425781 L 10.207031 7.972656 L 10.886719 9.117188 L 11.804688 8.574219 Z M 5.792969 7.972656 L 4.875 7.425781 L 4.195312 8.574219 L 5.113281 9.117188 Z M 8.605469 8.894531 L 7.675781 9.417969 L 8.324219 10.582031 L 9.257812 10.058594 Z M 8.324219 9.417969 L 7.394531 8.894531 L 6.742188 10.058594 L 7.675781 10.582031 Z M 2.667969 13.332031 L 4.332031 13.332031 L 4.332031 12 L 2.667969 12 Z M 3.800781 13.066406 L 4.800781 14.398438 L 5.867188 13.601562 L 4.867188 12.265625 Z M 13.332031 12 L 11.667969 12 L 11.667969 13.332031 L 13.332031 13.332031 Z M 11.132812 12.265625 L 10.132812 13.601562 L 11.199219 14.398438 L 12.199219 13.066406 Z M 11.738281 10.964844 L 12.738281 12.964844 L 13.929688 12.367188 L 12.929688 10.367188 Z M 9.070312 12.296875 L 10.070312 14.296875 L 11.261719 13.703125 L 10.261719 11.703125 Z M 5.738281 11.703125 L 4.738281 13.703125 L 5.929688 14.296875 L 6.929688 12.296875 Z M 3.070312 10.367188 L 2.070312 12.367188 L 3.261719 12.964844 L 4.261719 10.964844 Z M 8.667969 6 C 8.667969 6.367188 8.367188 6.667969 8 6.667969 L 8 8 C 9.105469 8 10 7.105469 10 6 Z M 8 6.667969 C 7.632812 6.667969 7.332031 6.367188 7.332031 6 L 6 6 C 6 7.105469 6.894531 8 8 8 Z M 7.332031 6 C 7.332031 5.632812 7.632812 5.332031 8 5.332031 L 8 4 C 6.894531 4 6 4.894531 6 6 Z M 8 5.332031 C 8.367188 5.332031 8.667969 5.632812 8.667969 6 L 10 6 C 10 4.894531 9.105469 4 8 4 Z M 8 5.332031 "/>
</g>
</svg>
