<?xml version="1.0" encoding="UTF-8"?>
<svg xmlns="http://www.w3.org/2000/svg" xmlns:xlink="http://www.w3.org/1999/xlink" width="16px" height="16px" viewBox="0 0 16 16" version="1.1">
<g id="surface1">
<path style="fill:none;stroke-width:1.5;stroke-linecap:round;stroke-linejoin:miter;stroke:rgb(10.980392%,15.294118%,29.803922%);stroke-opacity:1;stroke-miterlimit:4;" d="M 4.998047 22.001953 L 4.998047 13.998047 M 4.998047 13.998047 L 7.470703 13.505859 C 9.123047 13.177734 10.833984 13.330078 12.392578 13.957031 C 14.085937 14.636719 15.955078 14.759766 17.724609 14.320312 L 17.824219 14.296875 C 18.410156 14.150391 18.685547 13.476562 18.375 12.960937 L 16.816406 10.359375 C 16.470703 9.791016 16.300781 9.503906 16.259766 9.193359 C 16.242187 9.064453 16.242187 8.935547 16.259766 8.806641 C 16.300781 8.496094 16.470703 8.208984 16.816406 7.640625 L 18.09375 5.513672 C 18.427734 4.951172 17.923828 4.271484 17.291016 4.429687 C 15.802734 4.798828 14.232422 4.693359 12.808594 4.125 L 12.392578 3.955078 C 10.833984 3.333984 9.123047 3.175781 7.470703 3.503906 L 4.998047 4.001953 M 4.998047 13.998047 L 4.998047 10.998047 M 4.998047 4.001953 L 4.998047 1.998047 M 4.998047 4.001953 L 4.998047 7.001953 " transform="matrix(0.666667,0,0,0.666667,0,0)"/>
</g>
</svg>
