<?xml version="1.0" encoding="UTF-8"?>
<svg xmlns="http://www.w3.org/2000/svg" xmlns:xlink="http://www.w3.org/1999/xlink" width="16px" height="16px" viewBox="0 0 16 16" version="1.1">
<g id="surface1">
<path style="fill:none;stroke-width:1.5;stroke-linecap:round;stroke-linejoin:round;stroke:rgb(0%,0%,0%);stroke-opacity:1;stroke-miterlimit:4;" d="M 14.689453 4.998047 L 9.310547 4.998047 C 8.15625 5.003906 7.060547 5.466797 6.251953 6.287109 C 5.443359 7.101562 4.992187 8.208984 4.998047 9.357422 L 4.998047 14.642578 C 4.992187 15.791016 5.443359 16.898437 6.251953 17.712891 C 7.060547 18.533203 8.15625 18.996094 9.310547 19.001953 L 14.689453 19.001953 C 15.84375 18.996094 16.939453 18.533203 17.748047 17.712891 C 18.556641 16.898437 19.007812 15.791016 19.001953 14.642578 L 19.001953 9.357422 C 19.007812 8.208984 18.556641 7.101562 17.748047 6.287109 C 16.939453 5.466797 15.84375 5.003906 14.689453 4.998047 Z M 14.689453 4.998047 " transform="matrix(0.666667,0,0,0.666667,0,0)"/>
<path style=" stroke:none;fill-rule:nonzero;fill:rgb(0%,0%,0%);fill-opacity:1;" d="M 5.332031 6 C 5.058594 6 4.832031 6.222656 4.832031 6.5 C 4.832031 6.777344 5.058594 7 5.332031 7 Z M 8 7 C 8.277344 7 8.5 6.777344 8.5 6.5 C 8.5 6.222656 8.277344 6 8 6 Z M 7.5 6.5 C 7.5 6.777344 7.722656 7 8 7 C 8.277344 7 8.5 6.777344 8.5 6.5 Z M 8.5 5.332031 C 8.5 5.058594 8.277344 4.832031 8 4.832031 C 7.722656 4.832031 7.5 5.058594 7.5 5.332031 Z M 8 6 C 7.722656 6 7.5 6.222656 7.5 6.5 C 7.5 6.777344 7.722656 7 8 7 Z M 10.332031 7 C 10.609375 7 10.832031 6.777344 10.832031 6.5 C 10.832031 6.222656 10.609375 6 10.332031 6 Z M 10.332031 6 C 10.058594 6 9.832031 6.222656 9.832031 6.5 C 9.832031 6.777344 10.058594 7 10.332031 7 Z M 10.667969 7 C 10.941406 7 11.167969 6.777344 11.167969 6.5 C 11.167969 6.222656 10.941406 6 10.667969 6 Z M 10.742188 6.789062 C 10.902344 6.5625 10.847656 6.25 10.621094 6.089844 C 10.394531 5.933594 10.082031 5.988281 9.925781 6.210938 Z M 7.515625 8.851562 C 7.304688 9.03125 7.28125 9.347656 7.457031 9.558594 C 7.636719 9.765625 7.953125 9.792969 8.164062 9.613281 Z M 6.199219 9.933594 C 5.980469 10.097656 5.933594 10.414062 6.101562 10.632812 C 6.265625 10.855469 6.578125 10.898438 6.800781 10.734375 Z M 8.171875 9.605469 C 8.378906 9.421875 8.398438 9.105469 8.214844 8.898438 C 8.03125 8.691406 7.714844 8.671875 7.507812 8.855469 Z M 7.445312 9.539062 C 7.617188 9.757812 7.929688 9.792969 8.148438 9.625 C 8.367188 9.453125 8.402344 9.140625 8.234375 8.921875 Z M 7.457031 7.632812 C 7.34375 7.378906 7.050781 7.265625 6.796875 7.375 C 6.546875 7.488281 6.429688 7.78125 6.542969 8.035156 Z M 8.242188 8.933594 C 8.074219 8.714844 7.761719 8.667969 7.539062 8.832031 C 7.320312 8.996094 7.273438 9.308594 7.4375 9.53125 Z M 9.261719 11.105469 C 9.507812 11.238281 9.808594 11.148438 9.941406 10.902344 C 10.070312 10.660156 9.980469 10.355469 9.738281 10.226562 Z M 5.332031 7 L 8 7 L 8 6 L 5.332031 6 Z M 8.5 6.5 L 8.5 5.332031 L 7.5 5.332031 L 7.5 6.5 Z M 8 7 L 10.332031 7 L 10.332031 6 L 8 6 Z M 10.332031 7 L 10.667969 7 L 10.667969 6 L 10.332031 6 Z M 9.925781 6.210938 C 9.238281 7.191406 8.425781 8.078125 7.515625 8.851562 L 8.164062 9.613281 C 9.140625 8.785156 10.007812 7.835938 10.742188 6.789062 Z M 6.800781 10.734375 C 7.140625 10.476562 7.636719 10.078125 8.171875 9.605469 L 7.507812 8.855469 C 6.992188 9.316406 6.519531 9.695312 6.199219 9.933594 Z M 8.234375 8.921875 C 7.921875 8.527344 7.660156 8.09375 7.457031 7.632812 L 6.542969 8.035156 C 6.78125 8.574219 7.082031 9.078125 7.445312 9.539062 Z M 7.4375 9.53125 C 7.921875 10.183594 8.546875 10.722656 9.261719 11.105469 L 9.738281 10.226562 C 9.148438 9.910156 8.636719 9.46875 8.242188 8.933594 Z M 7.4375 9.53125 "/>
</g>
</svg>
