<?xml version="1.0" encoding="UTF-8"?>
<svg xmlns="http://www.w3.org/2000/svg" xmlns:xlink="http://www.w3.org/1999/xlink" width="16px" height="16px" viewBox="0 0 16 16" version="1.1">
<g id="surface1">
<path style=" stroke:none;fill-rule:evenodd;fill:rgb(12.156863%,13.72549%,15.686275%);fill-opacity:1;" d="M 6 4.667969 L 10 4.667969 L 10 8 L 6 8 Z M 7 5.667969 L 7 7 L 9 7 L 9 5.667969 Z M 7 5.667969 "/>
<path style=" stroke:none;fill-rule:evenodd;fill:rgb(12.156863%,13.72549%,15.686275%);fill-opacity:1;" d="M 12 2.667969 L 4 2.667969 L 4 4 L 2.667969 4 L 2.667969 5 L 4 5 L 4 7.339844 L 2.667969 7.339844 L 2.667969 8.339844 L 4 8.339844 L 4 10.679688 L 2.667969 10.679688 L 2.667969 11.679688 L 4 11.679688 L 4 13.332031 L 12 13.332031 Z M 5 3.667969 L 5 12.332031 L 11 12.332031 L 11 3.667969 Z M 5 3.667969 "/>
</g>
</svg>
